<?xml version="1.0" encoding="UTF-8" standalone="no"?>
<svg width="214px" height="43px" viewBox="0 0 214 43" version="1.1" xmlns="http://www.w3.org/2000/svg" xmlns:xlink="http://www.w3.org/1999/xlink">
    <!-- Generator: Sketch 3.6.1 (26313) - http://www.bohemiancoding.com/sketch -->
    <title>TahoeSampleLogo</title>
    <desc>Created with Sketch.</desc>
    <defs></defs>
    <g id="Page-1" stroke="none" stroke-width="1" fill="none" fill-rule="evenodd">
        <g id="TahoeSampleLogo" fill="#FFFFFF">
            <path d="M90.1290323,21.4584296 L83.0998464,21.4584296 L83.0998464,30.0841638 C83.0998464,30.7941044 83.135347,31.4419154 83.2063492,32.0276163 C83.2773515,32.6133173 83.4371041,33.1191423 83.6856119,33.5451066 C83.9341197,33.9710709 84.315751,34.2994135 84.8305172,34.5301442 C85.3452834,34.7608748 86.0286696,34.8762384 86.8806964,34.8762384 C87.3067098,34.8762384 87.865844,34.8318678 88.5581157,34.7431253 C89.2503875,34.6543827 89.7740211,34.4502778 90.1290323,34.1308046 L90.1290323,40.7864638 C89.2415044,41.105937 88.3184892,41.318916 87.3599591,41.425407 C86.4014289,41.5318981 85.4606634,41.5851429 84.5376344,41.5851429 C83.188592,41.5851429 81.9460716,41.4431569 80.8100359,41.1591807 C79.6740001,40.8752045 78.6799838,40.4226242 77.827957,39.8014262 C76.9759302,39.1802282 76.3102943,38.372683 75.8310292,37.3787663 C75.3517641,36.3848495 75.1121352,35.1779687 75.1121352,33.7580877 L75.1121352,21.4584296 L70,21.4584296 L70,15.0689968 L75.1121352,15.0689968 L75.1121352,7.40167747 L83.0998464,7.40167747 L83.0998464,15.0689968 L90.1290323,15.0689968 L90.1290323,21.4584296 Z M113.251067,37.6982379 L113.144564,37.6982379 C112.257036,39.0826219 111.076642,40.0765238 109.603345,40.6799732 C108.130049,41.2834227 106.576898,41.5851429 104.943847,41.5851429 C103.736809,41.5851429 102.574165,41.4165345 101.45588,41.0793128 C100.337595,40.742091 99.3524535,40.236266 98.5004267,39.5618225 C97.6483999,38.887379 96.9738888,38.0532114 96.4768732,37.0592946 C95.9798575,36.0653779 95.7313535,34.9117419 95.7313535,33.5983519 C95.7313535,32.1074768 96.006483,30.8473512 96.5567503,29.8179375 C97.1070176,28.7885237 97.8525299,27.9366079 98.7933094,27.2621644 C99.734089,26.5877209 100.807982,26.0641476 102.01502,25.6914288 C103.222058,25.31871 104.473453,25.0436122 105.769244,24.8661271 C107.065035,24.6886419 108.360806,24.5821525 109.656597,24.5466554 C110.952387,24.5111584 112.150532,24.4934102 113.251067,24.4934102 C113.251067,23.0735291 112.745183,21.9465154 111.733402,21.1123353 C110.72162,20.2781552 109.523475,19.8610714 108.138932,19.8610714 C106.82539,19.8610714 105.627246,20.1361692 104.544462,20.6863731 C103.461677,21.236577 102.494287,21.9908775 101.64226,22.9492972 L97.3821471,18.5831848 C98.873194,17.1988008 100.612723,16.1605284 102.600785,15.4683364 C104.588848,14.7761443 106.647881,14.4300535 108.777948,14.4300535 C111.121022,14.4300535 113.046929,14.7228996 114.555726,15.3086005 C116.064524,15.8943015 117.271544,16.7550914 118.176822,17.8909963 C119.0821,19.0269011 119.712236,20.4201385 120.067247,22.0707502 C120.422258,23.721362 120.599761,25.6292985 120.599761,27.7946171 L120.599761,40.9461996 L113.251067,40.9461996 L113.251067,37.6982379 Z M111.280765,29.6049564 C110.677246,29.6049564 109.922858,29.6315788 109.01758,29.6848243 C108.112301,29.7380698 107.242537,29.8889299 106.408261,30.1374091 C105.573985,30.3858883 104.863973,30.7586015 104.278204,31.2555599 C103.692436,31.7525182 103.399556,32.4446999 103.399556,33.3321255 C103.399556,34.2905452 103.807813,35.0004751 104.624339,35.4619364 C105.440864,35.9233978 106.292878,36.154125 107.180406,36.154125 C107.961431,36.154125 108.715818,36.0476355 109.443591,35.8346534 C110.171364,35.6216712 110.81925,35.319951 111.387267,34.9294837 C111.955285,34.5390164 112.407918,34.0420655 112.745178,33.4386161 C113.082439,32.8351666 113.251067,32.1252367 113.251067,31.3088051 L113.251067,29.6049564 L111.280765,29.6049564 Z M134.207544,0.692773048 L134.207544,18.5831848 L134.314047,18.5831848 C134.491552,18.0862265 134.793307,17.5892756 135.219321,17.0923172 C135.645334,16.5953588 136.160093,16.1516526 136.763612,15.7611854 C137.367131,15.3707181 138.077142,15.0512496 138.893668,14.8027704 C139.710194,14.5542913 140.597708,14.4300535 141.556238,14.4300535 C143.579802,14.4300535 145.212829,14.7406479 146.455368,15.3618458 C147.697907,15.9830438 148.665298,16.8438337 149.35757,17.9442416 C150.049841,19.0446494 150.520224,20.3402714 150.768732,21.8311465 C151.01724,23.3220216 151.141492,24.9371121 151.141492,26.6764664 L151.141492,40.9461996 L143.153781,40.9461996 L143.153781,28.2738246 C143.153781,27.528387 143.127155,26.7563383 143.073903,25.9576552 C143.020652,25.1589721 142.860899,24.4224198 142.594641,23.7479763 C142.328382,23.0735328 141.920126,22.5233372 141.369858,22.0973729 C140.819591,21.6714086 140.029703,21.4584296 139.000171,21.4584296 C137.970638,21.4584296 137.136375,21.6447862 136.497354,22.017505 C135.858334,22.3902237 135.370201,22.8871746 135.032941,23.5083726 C134.69568,24.1295706 134.473802,24.8306263 134.367298,25.6115609 C134.260795,26.3924955 134.207544,27.2089148 134.207544,28.0608435 L134.207544,40.9461996 L126.219833,40.9461996 L126.219833,0.692773048 L134.207544,0.692773048 Z M154.962849,28.0075982 C154.962849,25.9487707 155.335605,24.0852047 156.081129,22.4168445 C156.826652,20.7484843 157.847294,19.3197504 159.143085,18.1306 C160.438875,16.9414496 161.965401,16.0274149 163.722706,15.3884684 C165.480011,14.749522 167.352667,14.4300535 169.340729,14.4300535 C171.328792,14.4300535 173.201448,14.749522 174.958753,15.3884684 C176.716058,16.0274149 178.242583,16.9414496 179.538374,18.1306 C180.834165,19.3197504 181.854807,20.7484843 182.60033,22.4168445 C183.345853,24.0852047 183.71861,25.9487707 183.71861,28.0075982 C183.71861,30.0664257 183.345853,31.9299916 182.60033,33.5983519 C181.854807,35.2667121 180.834165,36.695446 179.538374,37.8845964 C178.242583,39.0737468 176.716058,39.9877815 174.958753,40.6267279 C173.201448,41.2656744 171.328792,41.5851429 169.340729,41.5851429 C167.352667,41.5851429 165.480011,41.2656744 163.722706,40.6267279 C161.965401,39.9877815 160.438875,39.0737468 159.143085,37.8845964 C157.847294,36.695446 156.826652,35.2667121 156.081129,33.5983519 C155.335605,31.9299916 154.962849,30.0664257 154.962849,28.0075982 L154.962849,28.0075982 Z M162.95056,28.0075982 C162.95056,29.9599346 163.509695,31.5395286 164.62798,32.7464275 C165.746265,33.9533264 167.317166,34.5567668 169.340729,34.5567668 C171.364293,34.5567668 172.935194,33.9533264 174.053479,32.7464275 C175.171764,31.5395286 175.730898,29.9599346 175.730898,28.0075982 C175.730898,26.0552617 175.171764,24.4756678 174.053479,23.2687689 C172.935194,22.06187 171.364293,21.4584296 169.340729,21.4584296 C167.317166,21.4584296 165.746265,22.06187 164.62798,23.2687689 C163.509695,24.4756678 162.95056,26.0552617 162.95056,28.0075982 L162.95056,28.0075982 Z M212.775218,36.4735966 C211.497177,38.1064598 209.881901,39.3665854 207.929339,40.254011 C205.976778,41.1414367 203.953245,41.5851429 201.858679,41.5851429 C199.870616,41.5851429 197.997961,41.2656744 196.240655,40.6267279 C194.48335,39.9877815 192.956825,39.0737468 191.661034,37.8845964 C190.365244,36.695446 189.344602,35.2667121 188.599078,33.5983519 C187.853555,31.9299916 187.480799,30.0664257 187.480799,28.0075982 C187.480799,25.9487707 187.853555,24.0852047 188.599078,22.4168445 C189.344602,20.7484843 190.365244,19.3197504 191.661034,18.1306 C192.956825,16.9414496 194.48335,16.0274149 196.240655,15.3884684 C197.997961,14.749522 199.870616,14.4300535 201.858679,14.4300535 C203.704737,14.4300535 205.38214,14.749522 206.890937,15.3884684 C208.399734,16.0274149 209.677755,16.9414496 210.725038,18.1306 C211.772321,19.3197504 212.57996,20.7484843 213.147977,22.4168445 C213.715995,24.0852047 214,25.9487707 214,28.0075982 L214,30.510126 L195.46851,30.510126 C195.78802,32.0364982 196.480281,33.2522531 197.545315,34.1574272 C198.610348,35.0626014 199.92387,35.5151817 201.485919,35.5151817 C202.79946,35.5151817 203.908854,35.2223356 204.814132,34.6366347 C205.719411,34.0509338 206.509299,33.2966333 207.18382,32.3737106 L212.775218,36.4735966 Z M206.012289,25.0791082 C206.04779,23.7302212 205.604033,22.5765851 204.681004,21.6181654 C203.757975,20.6597457 202.568705,20.180543 201.113159,20.180543 C200.225631,20.180543 199.444618,20.322529 198.770097,20.6065052 C198.095576,20.8904814 197.518692,21.2543205 197.039427,21.6980333 C196.560161,22.1417461 196.187405,22.6564453 195.921147,23.2421462 C195.654889,23.8278472 195.504011,24.4401617 195.46851,25.0791082 L206.012289,25.0791082 Z" id="tahoe"></path>
            <path d="M46.0416667,9 L65,42.25 L0,42.25 L18.9583333,9 L32.5,25.25 L46.0416667,9 Z" id="Combined-Shape"></path>
        </g>
    </g>
</svg>