<?xml version="1.0" encoding="UTF-8" standalone="no"?>
<svg width="155px" height="33px" viewBox="0 0 155 33" version="1.1" xmlns="http://www.w3.org/2000/svg" xmlns:xlink="http://www.w3.org/1999/xlink">
    <!-- Generator: Sketch 3.6.1 (26313) - http://www.bohemiancoding.com/sketch -->
    <title>TahoeSampleLogo2</title>
    <desc>Created with Sketch.</desc>
    <defs></defs>
    <g id="Page-1" stroke="none" stroke-width="1" fill="none" fill-rule="evenodd">
        <g id="TahoeSampleLogo2" fill="#FFFFFF">
            <path d="M55.7811407,16.8818571 L50.179924,16.8818571 L50.179924,23.7552857 C50.179924,24.3210028 50.2082126,24.837212 50.2647909,25.3039286 C50.3213691,25.7706452 50.4486682,26.1737126 50.646692,26.5131429 C50.8447158,26.8525731 51.1488192,27.1142134 51.5590114,27.2980714 C51.9692036,27.4819295 52.5137609,27.5738571 53.1926996,27.5738571 C53.532169,27.5738571 53.9777159,27.5385004 54.5293536,27.4677857 C55.0809914,27.3970711 55.4982495,27.2344298 55.7811407,26.9798571 L55.7811407,32.2834286 C55.0739128,32.5380013 54.3384069,32.7077139 53.5746008,32.7925714 C52.8107947,32.877429 52.0611444,32.9198571 51.3256274,32.9198571 C50.250641,32.9198571 49.2605368,32.8067154 48.3552852,32.5804286 C47.4500335,32.3541417 46.6579502,31.9935025 45.9790114,31.4985 C45.3000727,31.0034975 44.7696597,30.360004 44.3877567,29.568 C44.0058536,28.775996 43.8149049,27.8142914 43.8149049,26.6828571 L43.8149049,16.8818571 L39.7412928,16.8818571 L39.7412928,11.7904286 L43.8149049,11.7904286 L43.8149049,5.68071429 L50.179924,5.68071429 L50.179924,11.7904286 L55.7811407,11.7904286 L55.7811407,16.8818571 Z M74.2059666,29.8225714 L74.1210997,29.8225714 C73.4138718,30.9257198 72.4732729,31.7177119 71.2992746,32.1985714 C70.1252763,32.679431 68.8876461,32.9198571 67.5863469,32.9198571 C66.624517,32.9198571 65.6980623,32.7855013 64.8069552,32.5167857 C63.9158481,32.2480701 63.1308369,31.8450027 62.4518982,31.3075714 C61.7729594,30.7701402 61.2354743,30.1054325 60.8394267,29.3134286 C60.4433791,28.5214246 60.2453583,27.6021481 60.2453583,26.5555714 C60.2453583,25.3675655 60.4645956,24.3634327 60.9030769,23.5431429 C61.3415582,22.722853 61.9356207,22.0440027 62.6852822,21.5065714 C63.4349438,20.9691402 64.2906766,20.5519301 65.2525066,20.2549286 C66.2143365,19.9579271 67.2115128,19.738715 68.2440655,19.5972857 C69.2766182,19.4558564 70.3091554,19.3710001 71.3417081,19.3427143 C72.3742608,19.3144284 73.3290041,19.3002857 74.2059666,19.3002857 C74.2059666,18.1688515 73.8028528,17.270789 72.996613,16.6060714 C72.1903732,15.9413538 71.2356299,15.609 70.1323545,15.609 C69.0856572,15.609 68.1309139,15.8282121 67.2680959,16.2666429 C66.4052779,16.7050736 65.6344111,17.306139 64.9554723,18.0698571 L61.5607955,14.5907143 C62.7489383,13.4875659 64.1350842,12.660217 65.7192746,12.1086429 C67.303465,11.5570687 68.9442091,11.2812857 70.641556,11.2812857 C72.5086376,11.2812857 74.043299,11.5146405 75.2455864,11.9813571 C76.4478738,12.4480738 77.4096893,13.1339955 78.1310617,14.0391429 C78.8524341,14.9442902 79.3545584,16.0544934 79.6374495,17.3697857 C79.9203407,18.685078 80.0617841,20.2054199 80.0617841,21.9308571 L80.0617841,32.4107143 L74.2059666,32.4107143 L74.2059666,29.8225714 Z M72.6359286,23.3734286 C72.1550137,23.3734286 71.553879,23.3946426 70.8325066,23.4370714 C70.1111341,23.4795002 69.4180612,23.5997133 68.753267,23.7977143 C68.0884728,23.9957153 67.522699,24.2927123 67.0559286,24.6887143 C66.5891582,25.0847163 66.3557765,25.6362822 66.3557765,26.3434286 C66.3557765,27.1071467 66.6810965,27.6728553 67.3317461,28.0405714 C67.9823957,28.4082876 68.6613243,28.5921429 69.3685522,28.5921429 C69.9909127,28.5921429 70.5920474,28.5072866 71.1719742,28.3375714 C71.7519011,28.1678563 72.2681697,27.9274301 72.7207955,27.6162857 C73.1734214,27.3051413 73.5341022,26.9091453 73.8028488,26.4282857 C74.0715953,25.9474262 74.2059666,25.3817175 74.2059666,24.7311429 L74.2059666,23.3734286 L72.6359286,23.3734286 Z M90.9051652,0.334714286 L90.9051652,14.5907143 L90.9900321,14.5907143 C91.1314777,14.1947123 91.3719316,13.7987163 91.7114009,13.4027143 C92.0508703,13.0067123 92.4610563,12.6531444 92.9419713,12.342 C93.4228862,12.0308556 93.98866,11.7762867 94.6393097,11.5782857 C95.2899593,11.3802847 95.9971766,11.2812857 96.7609827,11.2812857 C98.3734622,11.2812857 99.674742,11.5287832 100.664861,12.0237857 C101.65498,12.5187882 102.425847,13.2047099 102.977485,14.0815714 C103.529122,14.958433 103.903947,15.9908512 104.101971,17.1788571 C104.299995,18.3668631 104.399005,19.6538502 104.399005,21.0398571 L104.399005,32.4107143 L98.0339865,32.4107143 L98.0339865,22.3127143 C98.0339865,21.7187113 98.01277,21.1035032 97.9703363,20.4670714 C97.9279026,19.8306397 97.8006035,19.243717 97.5884352,18.7062857 C97.3762668,18.1688545 97.0509469,17.7304303 96.6124656,17.391 C96.1739843,17.0515697 95.5445609,16.8818571 94.7241766,16.8818571 C93.9037923,16.8818571 93.239008,17.0303557 92.729804,17.3273571 C92.2205999,17.6243586 91.8316304,18.0203547 91.5628838,18.5153571 C91.2941372,19.0103596 91.1173329,19.5689969 91.0324656,20.1912857 C90.9475982,20.8135745 90.9051652,21.4641395 90.9051652,22.143 L90.9051652,32.4107143 L84.5401462,32.4107143 L84.5401462,0.334714286 L90.9051652,0.334714286 Z M107.44406,22.1005714 C107.44406,20.4599918 107.741091,18.9750066 108.335162,17.6455714 C108.929234,16.3161362 109.742534,15.1776476 110.775086,14.2300714 C111.807639,13.2824953 113.024053,12.5541454 114.424364,12.045 C115.824675,11.5358546 117.316903,11.2812857 118.901094,11.2812857 C120.485284,11.2812857 121.977513,11.5358546 123.377824,12.045 C124.778135,12.5541454 125.994549,13.2824953 127.027101,14.2300714 C128.059654,15.1776476 128.872954,16.3161362 129.467025,17.6455714 C130.061097,18.9750066 130.358128,20.4599918 130.358128,22.1005714 C130.358128,23.7411511 130.061097,25.2261362 129.467025,26.5555714 C128.872954,27.8850066 128.059654,29.0234953 127.027101,29.9710714 C125.994549,30.9186476 124.778135,31.6469975 123.377824,32.1561429 C121.977513,32.6652883 120.485284,32.9198571 118.901094,32.9198571 C117.316903,32.9198571 115.824675,32.6652883 114.424364,32.1561429 C113.024053,31.6469975 111.807639,30.9186476 110.775086,29.9710714 C109.742534,29.0234953 108.929234,27.8850066 108.335162,26.5555714 C107.741091,25.2261362 107.44406,23.7411511 107.44406,22.1005714 L107.44406,22.1005714 Z M113.809079,22.1005714 C113.809079,23.6562935 114.254625,24.9149952 115.145733,25.8767143 C116.03684,26.8384334 117.288614,27.3192857 118.901094,27.3192857 C120.513573,27.3192857 121.765348,26.8384334 122.656455,25.8767143 C123.547562,24.9149952 123.993109,23.6562935 123.993109,22.1005714 C123.993109,20.5448494 123.547562,19.2861477 122.656455,18.3244286 C121.765348,17.3627095 120.513573,16.8818571 118.901094,16.8818571 C117.288614,16.8818571 116.03684,17.3627095 115.145733,18.3244286 C114.254625,19.2861477 113.809079,20.5448494 113.809079,22.1005714 L113.809079,22.1005714 Z M153.511927,28.8467143 C152.493519,30.1478636 151.206384,31.1519965 149.650482,31.8591429 C148.094581,32.5662892 146.482126,32.9198571 144.813068,32.9198571 C143.228878,32.9198571 141.736649,32.6652883 140.336338,32.1561429 C138.936027,31.6469975 137.719613,30.9186476 136.68706,29.9710714 C135.654508,29.0234953 134.841208,27.8850066 134.247136,26.5555714 C133.653065,25.2261362 133.356034,23.7411511 133.356034,22.1005714 C133.356034,20.4599918 133.653065,18.9750066 134.247136,17.6455714 C134.841208,16.3161362 135.654508,15.1776476 136.68706,14.2300714 C137.719613,13.2824953 138.936027,12.5541454 140.336338,12.045 C141.736649,11.5358546 143.228878,11.2812857 144.813068,11.2812857 C146.284102,11.2812857 147.620743,11.5358546 148.82303,12.045 C150.025317,12.5541454 151.04371,13.2824953 151.878239,14.2300714 C152.712768,15.1776476 153.356336,16.3161362 153.808962,17.6455714 C154.261587,18.9750066 154.487897,20.4599918 154.487897,22.1005714 L154.487897,24.0947143 L139.721053,24.0947143 C139.975655,25.3110061 140.527284,26.2797821 141.375958,27.0010714 C142.224631,27.7223607 143.271313,28.083 144.516034,28.083 C145.562731,28.083 146.446753,27.8496452 147.168125,27.3829286 C147.889497,26.916212 148.518921,26.3151465 149.056414,25.5797143 L153.511927,28.8467143 Z M148.122878,19.767 C148.151167,18.6921375 147.797558,17.772861 147.062041,17.0091429 C146.326524,16.2454248 145.378853,15.8635714 144.219,15.8635714 C143.511772,15.8635714 142.889421,15.9767132 142.351927,16.203 C141.814434,16.4292868 141.354743,16.7192125 140.97284,17.0727857 C140.590937,17.4263589 140.293906,17.8364977 140.081737,18.3032143 C139.869569,18.7699309 139.749342,19.2578546 139.721053,19.767 L148.122878,19.767 Z" id="tahoe"></path>
            <path d="M11.4630994,13.0343209 L18.269962,1.17857143 L24.882825,12.6964251 L18.0040143,19.5752358 L11.4630994,13.0343209 Z M9.72331636,16.0645615 L0,33 L36.539924,33 L26.622608,15.7266657 L18.2433212,24.1059524 L18.0040143,23.8666454 L17.7647073,24.1059524 L9.72331636,16.0645615 Z" id="Combined-Shape"></path>
        </g>
    </g>
</svg>